<svg id="svg" version="1.1" width="400" height="400" xmlns="http://www.w3.org/2000/svg" xmlns:xlink="http://www.w3.org/1999/xlink" style="display: block;"><g id="svgg"><path id="path0" d="M225.638 6.500 C 225.322 7.325,224.374 8.000,223.531 8.000 C 222.689 8.000,222.000 8.575,222.000 9.278 C 222.000 9.981,221.100 11.326,220.000 12.268 C 218.900 13.210,218.000 14.660,218.000 15.490 C 218.000 16.321,217.550 17.000,217.000 17.000 C 216.450 17.000,216.000 17.675,216.000 18.500 C 216.000 19.333,215.111 20.000,214.000 20.000 C 212.889 20.000,212.000 20.667,212.000 21.500 C 212.000 22.333,211.111 23.000,210.000 23.000 C 208.889 23.000,208.000 23.667,208.000 24.500 C 208.000 25.325,207.311 26.000,206.469 26.000 C 205.626 26.000,204.678 26.675,204.362 27.500 C 204.045 28.325,202.757 29.000,201.500 29.000 C 200.243 29.000,198.955 29.675,198.638 30.500 C 198.322 31.325,196.924 32.000,195.531 32.000 C 193.948 32.000,193.000 32.562,193.000 33.500 C 193.000 34.500,192.000 35.000,190.000 35.000 C 187.913 35.000,187.000 35.488,187.000 36.605 C 187.000 37.864,186.170 38.131,183.156 37.843 C 179.885 37.532,179.381 37.740,179.773 39.238 C 180.163 40.733,179.533 41.000,175.617 41.000 C 172.081 41.000,171.000 41.369,171.000 42.576 C 171.000 43.829,170.031 44.091,166.257 43.859 C 162.428 43.624,161.451 43.898,161.184 45.284 C 160.916 46.675,159.732 47.000,154.927 47.000 C 150.207 47.000,149.000 47.320,149.000 48.571 C 149.000 49.834,147.874 50.112,143.250 49.989 C 135.229 49.776,135.000 49.818,135.000 51.500 C 135.000 52.667,133.667 53.000,129.000 53.000 C 124.172 53.000,123.000 53.312,123.000 54.597 C 123.000 55.892,122.057 56.128,117.999 55.847 C 113.771 55.554,112.999 55.770,112.999 57.250 C 113.000 58.625,112.143 59.000,109.000 59.000 C 106.111 59.000,105.000 59.417,105.000 60.500 C 105.000 61.487,104.013 62.000,102.117 62.000 C 100.028 62.000,99.082 62.579,98.684 64.101 C 98.379 65.267,97.657 65.906,97.060 65.537 C 96.469 65.172,95.716 65.577,95.386 66.437 C 95.056 67.296,94.042 68.000,93.132 68.000 C 92.222 68.000,90.358 69.389,88.989 71.086 C 87.620 72.783,85.544 74.551,84.375 75.014 C 82.757 75.654,82.367 76.470,82.741 78.428 C 83.141 80.517,82.847 81.000,81.176 81.000 C 80.044 81.000,78.797 81.520,78.405 82.155 C 77.962 82.870,78.130 83.038,78.845 82.595 C 79.677 82.082,80.047 84.137,80.167 89.941 C 80.258 94.373,80.371 98.787,80.417 99.750 C 80.478 101.045,79.800 101.453,77.808 101.320 C 75.923 101.193,75.270 101.541,75.630 102.479 C 75.920 103.235,75.282 104.093,74.165 104.448 C 73.076 104.793,71.932 105.734,71.624 106.538 C 71.315 107.342,70.374 108.000,69.531 108.000 C 68.689 108.000,68.000 108.675,68.000 109.500 C 68.000 110.325,67.438 111.001,66.750 111.003 C 66.063 111.004,64.600 112.353,63.500 114.000 C 62.400 115.647,60.938 116.996,60.250 116.997 C 59.528 116.999,59.000 118.268,59.000 120.000 C 59.000 122.000,58.500 123.000,57.500 123.000 C 56.333 123.000,56.000 124.333,56.000 129.000 C 56.000 133.667,56.333 135.000,57.500 135.000 C 58.492 135.000,59.000 135.993,59.000 137.933 C 59.000 139.987,59.599 141.055,61.000 141.500 C 62.100 141.849,63.000 143.004,63.000 144.067 C 63.000 145.333,63.690 146.000,65.000 146.000 C 66.572 146.000,67.000 145.333,67.000 142.883 C 67.000 140.352,67.345 139.857,68.835 140.247 C 70.312 140.633,70.582 140.265,70.219 138.363 C 69.894 136.667,70.223 136.000,71.383 136.000 C 72.273 136.000,73.000 135.325,73.000 134.500 C 73.000 133.675,73.675 133.000,74.500 133.000 C 75.325 133.000,76.005 132.438,76.011 131.750 C 76.018 131.063,77.793 129.652,79.956 128.616 C 82.119 127.580,84.125 126.118,84.413 125.366 C 84.701 124.615,85.803 124.000,86.862 124.000 C 87.920 124.000,89.045 123.325,89.362 122.500 C 90.000 120.836,93.548 120.459,94.473 121.956 C 95.357 123.387,97.732 122.132,98.308 119.931 C 99.072 117.009,109.942 117.064,110.709 119.993 C 111.156 121.706,111.786 121.898,115.173 121.356 C 118.654 120.800,119.183 120.982,119.688 122.914 C 120.156 124.704,120.758 124.992,123.000 124.500 C 125.179 124.021,125.846 124.305,126.260 125.884 C 126.637 127.327,127.353 127.720,128.877 127.322 C 130.255 126.962,131.188 127.327,131.595 128.387 C 131.935 129.274,132.841 130.000,133.607 130.000 C 134.373 130.000,135.000 130.666,135.000 131.481 C 135.000 132.295,136.125 133.244,137.500 133.589 C 138.875 133.934,140.000 134.593,140.000 135.053 C 140.000 135.513,141.576 137.601,143.502 139.694 C 145.427 141.787,146.792 144.063,146.533 144.750 C 146.274 145.438,146.724 146.000,147.531 146.000 C 148.339 146.000,149.021 146.338,149.046 146.750 C 149.129 148.108,149.157 170.472,149.078 171.750 C 149.035 172.438,148.325 173.000,147.500 173.000 C 146.452 173.000,146.000 174.056,146.000 176.500 C 146.000 178.425,145.559 180.000,145.019 180.000 C 144.480 180.000,143.756 181.125,143.411 182.500 C 143.066 183.875,142.382 185.000,141.892 185.000 C 141.401 185.000,141.000 185.659,141.000 186.465 C 141.000 187.270,140.100 188.411,139.000 189.000 C 137.868 189.606,137.000 191.094,137.000 192.428 C 137.000 193.725,136.274 195.065,135.387 195.405 C 134.327 195.812,133.962 196.745,134.322 198.123 C 134.699 199.566,134.339 200.360,133.167 200.667 C 130.989 201.236,130.474 230.000,132.642 230.000 C 134.187 230.000,135.245 233.198,134.416 235.359 C 134.000 236.442,134.309 237.000,135.326 237.000 C 137.010 237.000,138.497 240.386,137.513 241.980 C 137.156 242.556,137.551 242.726,138.448 242.382 C 139.444 241.999,140.000 242.348,140.000 243.354 C 140.000 244.216,140.912 245.772,142.027 246.810 C 143.141 247.849,143.812 249.329,143.517 250.099 C 143.204 250.916,144.444 252.719,146.490 254.424 C 148.421 256.032,150.000 257.944,150.000 258.674 C 150.000 259.403,150.450 260.000,151.000 260.000 C 151.550 260.000,152.000 260.650,152.000 261.445 C 152.000 262.239,154.250 265.104,157.000 267.811 C 159.750 270.518,162.000 273.050,162.000 273.438 C 162.000 273.826,162.735 274.878,163.634 275.777 C 164.705 276.848,164.877 277.541,164.134 277.789 C 163.510 277.997,163.000 278.669,163.000 279.283 C 163.000 280.059,163.366 280.034,164.200 279.200 C 165.801 277.599,167.000 277.682,167.000 279.393 C 167.000 281.567,205.720 320.000,207.910 320.000 C 208.510 320.000,209.000 320.464,209.000 321.031 C 209.000 321.599,209.737 322.346,210.638 322.691 C 211.538 323.037,215.525 326.623,219.497 330.660 C 223.469 334.697,227.232 338.000,227.860 338.000 C 228.487 338.000,229.000 338.675,229.000 339.500 C 229.000 340.341,229.892 341.000,231.031 341.000 C 232.149 341.000,233.322 341.675,233.638 342.500 C 233.955 343.325,234.604 344.000,235.081 344.000 C 235.557 344.000,237.972 346.025,240.447 348.500 C 246.632 354.685,249.624 354.637,256.037 348.250 C 258.660 345.637,262.656 341.802,264.916 339.726 C 268.909 336.059,269.858 331.355,266.845 330.167 C 266.380 329.983,266.000 329.196,266.000 328.417 C 266.000 327.637,265.325 327.000,264.500 327.000 C 263.667 327.000,263.000 326.111,263.000 325.000 C 263.000 323.889,262.333 323.000,261.500 323.000 C 260.675 323.000,260.000 322.425,260.000 321.722 C 260.000 321.019,259.212 319.738,258.250 318.876 C 248.460 310.099,237.500 296.101,243.155 299.595 C 243.870 300.038,244.038 299.870,243.595 299.155 C 243.203 298.520,242.009 298.000,240.941 298.000 C 239.657 298.000,239.000 297.313,239.000 295.969 C 239.000 294.851,238.325 293.678,237.500 293.362 C 235.717 292.677,235.259 277.000,237.021 277.000 C 237.583 277.000,238.548 275.892,239.165 274.538 C 240.504 271.598,253.000 270.739,253.000 273.587 C 253.000 274.364,253.945 275.000,255.099 275.000 C 257.192 275.000,267.000 284.070,267.000 286.005 C 267.000 286.552,267.675 287.000,268.500 287.000 C 269.341 287.000,270.000 287.892,270.000 289.031 C 270.000 290.149,270.675 291.322,271.500 291.638 C 272.325 291.955,273.000 292.841,273.000 293.607 C 273.000 294.373,273.675 295.000,274.500 295.000 C 275.325 295.000,276.000 295.675,276.000 296.500 C 276.000 297.325,276.675 298.000,277.500 298.000 C 278.325 298.000,279.000 298.440,279.000 298.977 C 279.000 300.065,289.323 311.000,290.349 311.000 C 291.187 311.000,295.000 307.200,295.000 306.365 C 295.000 305.053,300.284 300.895,301.404 301.325 C 302.196 301.629,302.445 300.684,302.177 298.386 C 301.872 295.777,302.150 295.000,303.391 295.000 C 304.276 295.000,305.000 294.325,305.000 293.500 C 305.000 292.675,304.325 292.000,303.500 292.000 C 302.675 292.000,302.000 291.625,302.000 291.168 C 302.000 290.710,298.625 286.883,294.500 282.663 C 290.375 278.443,287.000 274.504,287.000 273.909 C 287.000 272.817,284.014 269.363,276.250 261.475 C 273.913 259.101,272.000 256.447,272.000 255.579 C 272.000 254.711,271.325 254.000,270.500 254.000 C 269.659 254.000,269.000 253.108,269.000 251.969 C 269.000 250.851,268.325 249.678,267.500 249.362 C 266.645 249.034,266.000 247.542,266.000 245.893 C 266.000 243.988,265.488 243.000,264.500 243.000 C 263.292 243.000,263.000 241.446,263.000 235.011 C 263.000 225.883,264.635 222.619,268.696 223.639 C 270.386 224.063,271.000 223.788,271.000 222.608 C 271.000 221.559,271.870 221.000,273.500 221.000 C 275.136 221.000,276.000 221.559,276.000 222.617 C 276.000 223.778,276.667 224.106,278.370 223.780 C 280.786 223.318,297.000 238.202,297.000 240.882 C 297.000 241.497,297.675 242.000,298.500 242.000 C 299.325 242.000,300.000 242.809,300.000 243.797 C 300.000 244.785,301.331 246.698,302.958 248.047 C 304.584 249.396,305.934 250.845,305.958 251.267 C 305.981 251.689,308.025 253.974,310.500 256.345 C 312.975 258.717,315.000 261.184,315.000 261.829 C 315.000 262.473,315.675 263.000,316.500 263.000 C 317.325 263.000,318.000 263.675,318.000 264.500 C 318.000 266.844,322.098 266.341,322.731 263.919 C 323.076 262.602,323.879 261.997,324.919 262.269 C 326.255 262.618,326.490 262.070,326.172 259.349 C 325.841 256.512,326.095 256.000,327.832 256.000 C 328.959 256.000,330.160 255.550,330.500 255.000 C 330.840 254.450,330.641 254.000,330.059 254.000 C 329.477 254.000,329.000 252.875,329.000 251.500 C 329.000 249.944,329.567 249.000,330.500 249.000 C 331.433 249.000,332.000 248.056,332.000 246.500 C 332.000 244.944,331.433 244.000,330.500 244.000 C 329.675 244.000,329.000 243.473,329.000 242.829 C 329.000 242.184,326.975 239.717,324.500 237.345 C 322.025 234.974,320.000 232.576,320.000 232.017 C 320.000 231.458,319.325 231.000,318.500 231.000 C 317.675 231.000,317.000 230.311,317.000 229.469 C 317.000 228.626,316.325 227.678,315.500 227.362 C 314.675 227.045,314.000 225.934,314.000 224.893 C 314.000 223.852,313.325 223.000,312.500 223.000 C 311.675 223.000,311.000 222.481,311.000 221.847 C 311.000 221.213,308.300 218.061,305.000 214.842 C 301.700 211.623,299.000 208.542,299.000 207.995 C 299.000 207.448,298.325 207.000,297.500 207.000 C 296.667 207.000,296.000 206.111,296.000 205.000 C 296.000 203.900,295.374 203.000,294.608 203.000 C 293.843 203.000,292.930 201.857,292.579 200.459 C 292.228 199.062,291.505 198.188,290.971 198.518 C 290.437 198.848,290.000 198.676,290.000 198.136 C 290.000 197.596,288.650 195.804,287.000 194.154 C 285.219 192.373,284.000 190.107,284.000 188.577 C 284.000 186.953,283.445 186.000,282.500 186.000 C 279.031 186.000,280.507 170.409,284.351 166.450 C 288.342 162.341,293.815 161.575,294.710 165.000 C 295.049 166.294,296.074 167.000,297.617 167.000 C 298.927 167.000,300.000 167.450,300.000 168.000 C 300.000 168.550,300.429 169.000,300.952 169.000 C 302.194 169.000,312.000 178.806,312.000 180.048 C 312.000 180.571,312.675 181.000,313.500 181.000 C 314.325 181.000,315.000 181.675,315.000 182.500 C 315.000 183.325,315.675 184.000,316.500 184.000 C 317.325 184.000,318.000 184.689,318.000 185.531 C 318.000 186.374,318.675 187.322,319.500 187.638 C 320.325 187.955,321.000 188.856,321.000 189.641 C 321.000 190.425,322.350 192.387,324.000 194.000 C 325.650 195.613,327.000 197.398,327.000 197.966 C 327.000 198.535,327.675 199.000,328.500 199.000 C 329.325 199.000,330.000 199.675,330.000 200.500 C 330.000 201.325,330.675 202.000,331.500 202.000 C 332.333 202.000,333.000 202.889,333.000 204.000 C 333.000 205.111,333.667 206.000,334.500 206.000 C 335.433 206.000,336.000 206.944,336.000 208.500 C 336.000 209.885,336.580 211.000,337.300 211.000 C 339.549 211.000,341.000 208.723,341.000 205.193 C 341.000 202.575,341.348 201.919,342.500 202.362 C 343.797 202.859,344.000 200.641,344.000 185.969 C 344.000 171.552,343.774 169.000,342.500 169.000 C 341.284 169.000,341.000 167.389,341.000 160.500 C 341.000 153.611,340.716 152.000,339.500 152.000 C 338.348 152.000,338.000 150.722,338.000 146.500 C 338.000 142.278,337.652 141.000,336.500 141.000 C 335.389 141.000,335.000 139.833,335.000 136.500 C 335.000 133.167,334.611 132.000,333.500 132.000 C 332.452 132.000,332.000 130.944,332.000 128.500 C 332.000 126.056,331.548 125.000,330.500 125.000 C 329.562 125.000,329.000 124.052,329.000 122.469 C 329.000 121.076,328.325 119.678,327.500 119.362 C 326.675 119.045,326.000 117.709,326.000 116.393 C 326.000 114.933,325.415 114.000,324.500 114.000 C 323.500 114.000,323.000 113.000,323.000 111.000 C 323.000 109.000,322.500 108.000,321.500 108.000 C 320.675 108.000,320.000 107.325,320.000 106.500 C 320.000 105.675,319.325 105.000,318.500 105.000 C 317.562 105.000,317.000 104.052,317.000 102.469 C 317.000 101.076,316.325 99.678,315.500 99.362 C 314.675 99.045,314.000 98.159,314.000 97.393 C 314.000 96.627,313.566 96.000,313.036 96.000 C 312.505 96.000,308.467 92.400,304.061 88.000 C 299.655 83.600,295.412 80.000,294.632 80.000 C 293.852 80.000,292.955 79.325,292.638 78.500 C 292.322 77.675,291.599 77.000,291.031 77.000 C 289.710 77.000,286.000 73.313,286.000 72.000 C 286.000 71.450,284.861 71.000,283.469 71.000 C 282.076 71.000,280.678 70.325,280.362 69.500 C 280.045 68.675,278.934 68.000,277.893 68.000 C 276.852 68.000,276.000 67.325,276.000 66.500 C 276.000 65.567,275.056 65.000,273.500 65.000 C 271.944 65.000,271.000 64.433,271.000 63.500 C 271.000 62.500,270.000 62.000,268.000 62.000 C 265.697 62.000,265.000 61.549,265.000 60.059 C 265.000 58.991,264.550 57.840,264.000 57.500 C 263.450 57.160,263.000 57.359,263.000 57.941 C 263.000 58.523,261.875 59.000,260.500 59.000 C 258.944 59.000,258.000 58.433,258.000 57.500 C 258.000 56.452,256.944 56.000,254.500 56.000 C 252.056 56.000,251.000 55.548,251.000 54.500 C 251.000 53.384,249.821 53.000,246.393 53.000 C 242.709 53.000,241.901 52.700,242.362 51.500 C 242.826 50.291,241.974 50.000,237.969 50.000 C 234.188 50.000,233.000 49.636,233.000 48.479 C 233.000 47.206,231.553 47.013,224.153 47.296 C 219.288 47.482,214.450 47.298,213.403 46.887 C 212.356 46.477,212.063 46.109,212.750 46.070 C 213.438 46.032,214.000 45.325,214.000 44.500 C 214.000 43.675,214.623 43.000,215.383 43.000 C 216.144 43.000,217.002 42.100,217.290 41.000 C 217.577 39.900,218.538 39.000,219.425 39.000 C 220.622 39.000,220.885 38.389,220.445 36.636 C 219.978 34.777,220.321 34.149,222.050 33.697 C 223.856 33.225,224.129 32.651,223.584 30.478 C 223.049 28.349,223.318 27.730,224.960 27.300 C 226.693 26.847,227.000 25.961,227.000 21.415 C 227.000 17.068,227.282 16.171,228.500 16.638 C 229.732 17.111,230.000 16.125,230.000 11.107 C 230.000 4.980,227.311 2.140,225.638 6.500 M122.000 80.883 C 122.000 81.369,122.826 81.983,123.835 82.247 C 126.754 83.010,125.368 91.377,122.250 91.820 C 121.013 91.995,120.000 92.783,120.000 93.570 C 120.000 94.663,118.471 95.000,113.500 95.000 C 108.389 95.000,107.000 94.679,107.000 93.500 C 107.000 92.491,105.937 91.974,103.750 91.921 C 101.963 91.878,101.063 91.615,101.750 91.338 C 102.438 91.060,103.000 90.196,103.000 89.417 C 103.000 88.638,103.627 88.000,104.393 88.000 C 105.159 88.000,106.065 87.274,106.405 86.387 C 106.800 85.359,107.751 84.963,109.025 85.296 C 110.365 85.647,111.381 85.156,112.101 83.811 C 112.935 82.254,113.944 81.891,116.588 82.200 C 118.924 82.473,120.000 82.189,120.000 81.299 C 120.000 80.585,120.450 80.000,121.000 80.000 C 121.550 80.000,122.000 80.398,122.000 80.883 M91.000 141.731 C 91.000 142.408,89.875 143.244,88.500 143.589 C 87.125 143.934,86.000 144.618,86.000 145.108 C 86.000 145.599,85.406 146.000,84.680 146.000 C 82.694 146.000,77.000 151.441,77.000 153.339 C 77.000 154.253,76.550 155.000,76.000 155.000 C 75.450 155.000,75.000 155.659,75.000 156.465 C 75.000 157.270,74.100 158.411,73.000 159.000 C 71.830 159.626,71.000 161.094,71.000 162.535 C 71.000 164.059,70.428 165.000,69.500 165.000 C 68.585 165.000,68.000 165.933,68.000 167.393 C 68.000 168.709,67.325 170.045,66.500 170.362 C 65.623 170.698,65.000 172.197,65.000 173.969 C 65.000 176.303,64.553 177.000,63.059 177.000 C 61.991 177.000,60.797 177.520,60.405 178.155 C 59.962 178.870,60.130 179.038,60.845 178.595 C 61.646 178.101,62.000 179.127,62.000 181.941 C 62.000 184.851,61.583 186.000,60.525 186.000 C 59.356 186.000,59.064 187.490,59.118 193.196 C 59.169 198.680,58.806 200.668,57.593 201.556 C 55.347 203.198,55.267 218.781,57.500 219.638 C 58.646 220.078,59.000 221.958,59.000 227.607 C 59.000 233.512,59.302 235.000,60.500 235.000 C 61.611 235.000,62.000 236.167,62.000 239.500 C 62.000 242.833,62.389 244.000,63.500 244.000 C 64.503 244.000,65.000 245.003,65.000 247.031 C 65.000 248.803,65.623 250.302,66.500 250.638 C 67.325 250.955,68.000 252.305,68.000 253.638 C 68.000 254.972,68.675 256.322,69.500 256.638 C 70.325 256.955,71.000 258.291,71.000 259.607 C 71.000 261.067,71.585 262.000,72.500 262.000 C 73.500 262.000,74.000 263.000,74.000 265.000 C 74.000 266.937,74.507 268.000,75.433 268.000 C 76.221 268.000,77.151 268.900,77.500 270.000 C 77.849 271.100,78.554 272.000,79.067 272.000 C 79.580 272.000,80.000 273.125,80.000 274.500 C 80.000 276.121,80.560 277.000,81.594 277.000 C 82.470 277.000,83.423 277.900,83.710 279.000 C 83.998 280.100,84.631 281.000,85.117 281.000 C 85.602 281.000,86.000 281.809,86.000 282.797 C 86.000 283.785,87.331 285.698,88.958 287.047 C 90.584 288.396,91.934 290.498,91.958 291.719 C 91.987 293.271,92.450 293.764,93.500 293.362 C 94.479 292.986,95.000 293.390,95.000 294.525 C 95.000 295.481,96.575 297.749,98.500 299.565 C 100.425 301.380,102.000 303.346,102.000 303.933 C 102.000 304.520,102.675 305.000,103.500 305.000 C 104.325 305.000,105.000 305.675,105.000 306.500 C 105.000 307.325,104.298 308.000,103.441 308.000 C 102.573 308.000,102.180 308.482,102.554 309.087 C 103.038 309.870,103.530 309.870,104.313 309.087 C 105.811 307.589,107.000 307.726,107.000 309.396 C 107.000 310.163,109.925 313.760,113.500 317.388 C 117.075 321.016,120.000 324.438,120.000 324.992 C 120.000 325.547,120.675 326.000,121.500 326.000 C 122.325 326.000,123.000 326.675,123.000 327.500 C 123.000 328.325,123.450 329.000,124.000 329.000 C 124.550 329.000,125.000 329.450,125.000 330.000 C 125.000 331.381,125.201 331.596,151.028 357.871 C 163.663 370.724,174.000 381.637,174.000 382.121 C 174.000 382.604,174.448 383.000,174.995 383.000 C 175.542 383.000,178.579 385.625,181.745 388.834 C 184.910 392.043,188.287 394.954,189.250 395.303 C 190.212 395.652,191.000 396.401,191.000 396.969 C 191.000 397.536,191.675 398.000,192.500 398.000 C 193.325 398.000,194.000 398.450,194.000 399.000 C 194.000 399.550,195.800 400.000,198.000 400.000 C 200.200 400.000,202.000 399.550,202.000 399.000 C 202.000 398.450,202.675 398.000,203.500 398.000 C 204.325 398.000,205.000 397.325,205.000 396.500 C 205.000 395.675,205.675 395.000,206.500 395.000 C 207.325 395.000,208.000 394.325,208.000 393.500 C 208.000 392.675,208.675 392.000,209.500 392.000 C 210.325 392.000,211.000 391.325,211.000 390.500 C 211.000 389.675,211.675 389.000,212.500 389.000 C 213.325 389.000,214.000 388.325,214.000 387.500 C 214.000 386.675,214.675 386.000,215.500 386.000 C 216.325 386.000,217.000 385.325,217.000 384.500 C 217.000 383.675,217.675 383.000,218.500 383.000 C 219.325 383.000,220.000 382.325,220.000 381.500 C 220.000 380.675,220.675 380.000,221.500 380.000 C 222.325 380.000,223.000 379.325,223.000 378.500 C 223.000 377.675,223.675 377.000,224.500 377.000 C 225.325 377.000,226.000 376.325,226.000 375.500 C 226.000 374.675,226.704 374.000,227.563 374.000 C 230.126 374.000,229.027 367.731,226.250 366.513 C 225.012 365.970,224.000 364.957,224.000 364.263 C 224.000 363.568,223.100 363.000,222.000 363.000 C 220.889 363.000,220.000 362.333,220.000 361.500 C 220.000 360.675,219.559 360.000,219.020 360.000 C 218.480 360.000,214.719 356.625,210.660 352.500 C 206.601 348.375,202.543 345.000,201.640 345.000 C 200.738 345.000,200.000 344.325,200.000 343.500 C 200.000 342.675,199.325 342.000,198.500 342.000 C 197.675 342.000,197.000 341.325,197.000 340.500 C 197.000 339.675,196.311 339.000,195.469 339.000 C 194.626 339.000,193.678 338.325,193.362 337.500 C 193.045 336.675,192.159 336.000,191.393 336.000 C 190.627 336.000,190.000 335.325,190.000 334.500 C 190.000 333.675,189.325 333.000,188.500 333.000 C 187.675 333.000,187.000 332.325,187.000 331.500 C 187.000 330.675,186.325 330.000,185.500 330.000 C 184.675 330.000,184.000 329.325,184.000 328.500 C 184.000 327.675,183.325 327.000,182.500 327.000 C 181.675 327.000,181.000 326.325,181.000 325.500 C 181.000 324.675,180.325 324.000,179.500 324.000 C 178.675 324.000,178.000 323.325,178.000 322.500 C 178.000 321.675,177.579 321.000,177.064 321.000 C 175.842 321.000,157.000 302.158,157.000 300.936 C 157.000 300.421,156.325 300.000,155.500 300.000 C 154.675 300.000,154.000 299.550,154.000 299.000 C 154.000 297.703,150.297 294.000,149.000 294.000 C 148.450 294.000,148.000 293.518,148.000 292.929 C 148.000 292.339,147.438 291.269,146.750 290.551 C 146.063 289.833,144.825 288.237,144.000 287.005 C 143.175 285.773,141.037 283.235,139.250 281.364 C 137.463 279.494,136.000 277.522,136.000 276.982 C 136.000 276.442,135.325 276.000,134.500 276.000 C 133.675 276.000,133.000 275.306,133.000 274.458 C 133.000 272.943,132.237 271.771,128.750 267.928 C 127.787 266.868,127.000 265.550,127.000 265.000 C 127.000 264.450,126.325 264.000,125.500 264.000 C 123.881 264.000,123.647 263.084,124.617 260.556 C 125.128 259.224,125.513 259.167,126.867 260.224 C 128.299 261.343,128.342 261.297,127.213 259.853 C 126.444 258.869,125.112 258.419,123.904 258.735 C 122.432 259.120,121.730 258.684,121.324 257.132 C 121.018 255.959,120.144 255.000,119.383 255.000 C 117.548 255.000,117.621 252.522,119.511 250.632 C 120.860 249.283,120.725 249.141,118.261 249.310 C 115.830 249.477,115.522 249.171,115.688 246.750 C 115.814 244.912,115.389 244.000,114.407 244.000 C 112.446 244.000,111.501 241.306,112.879 239.645 C 114.210 238.042,113.360 237.000,110.720 237.000 C 108.987 237.000,108.845 236.518,109.429 232.628 C 110.006 228.775,109.842 228.192,108.042 227.721 C 104.925 226.906,104.879 203.106,107.993 202.291 C 109.698 201.846,109.897 201.209,109.368 197.902 C 108.883 194.869,109.101 193.899,110.375 193.410 C 111.269 193.067,112.000 191.695,112.000 190.362 C 112.000 189.028,112.675 187.678,113.500 187.362 C 114.325 187.045,115.000 185.709,115.000 184.393 C 115.000 183.077,115.461 182.000,116.025 182.000 C 116.588 182.000,117.477 180.875,118.000 179.500 C 118.612 177.890,119.761 176.972,121.225 176.921 C 122.476 176.878,122.938 176.615,122.250 176.338 C 120.519 175.639,120.681 173.060,122.500 172.362 C 123.355 172.034,124.000 170.542,124.000 168.893 C 124.000 166.667,124.461 166.000,126.000 166.000 C 127.773 166.000,128.000 165.333,128.000 160.117 C 128.000 155.074,127.714 154.159,126.000 153.710 C 123.929 153.169,123.096 149.000,125.059 149.000 C 125.641 149.000,125.840 148.550,125.500 148.000 C 125.160 147.450,124.041 147.000,123.012 147.000 C 121.984 147.000,120.468 146.325,119.643 145.500 C 118.818 144.675,117.394 144.000,116.478 144.000 C 115.562 144.000,114.607 143.213,114.355 142.250 C 113.776 140.036,91.000 139.530,91.000 141.731 " stroke="none" fill="#ffffff" fill-rule="evenodd"></path></g></svg>