<?xml version="1.0" encoding="UTF-8"?>
<!-- Generator: Adobe Illustrator 15.0.0, SVG Export Plug-In  -->
<!DOCTYPE svg PUBLIC "-//W3C//DTD SVG 1.1//EN" "http://www.w3.org/Graphics/SVG/1.1/DTD/svg11.dtd" [
	<!ENTITY ns_flows "http://ns.adobe.com/Flows/1.0/">
]>
<svg version="1.1" xmlns="http://www.w3.org/2000/svg" xmlns:xlink="http://www.w3.org/1999/xlink" xmlns:a="http://ns.adobe.com/AdobeSVGViewerExtensions/3.0/" x="0px" y="0px" width="13px" height="13px" viewBox="-0.024 -0.001 13 13" enable-background="new -0.024 -0.001 13 13" xml:space="preserve">
<defs>
</defs>
<path fill="#E66E6E" d="M6.492,12.997C2.893,12.995-0.008,10.083,0,6.479C0.008,2.893,2.917-0.003,6.508,0  C10.109,0.004,13.011,2.919,13,6.521C12.99,10.108,10.083,12.999,6.492,12.997z M9.638,7.585c0.438-0.002,0.648-0.211,0.654-0.646  c0.004-0.307,0.008-0.614,0-0.92c-0.01-0.387-0.224-0.593-0.612-0.604c-0.146-0.004-4.349-0.002-6.306,0  c-0.458,0-0.664,0.207-0.667,0.658c-0.002,0.271-0.001,0.542,0,0.812c0.002,0.509,0.195,0.701,0.707,0.701  C4.442,7.587,8.591,7.587,9.638,7.585z"/>
</svg>