<?xml version="1.0" encoding="UTF-8"?>
<!-- Generator: Adobe Illustrator 15.0.0, SVG Export Plug-In  -->
<!DOCTYPE svg PUBLIC "-//W3C//DTD SVG 1.1//EN" "http://www.w3.org/Graphics/SVG/1.1/DTD/svg11.dtd" [
	<!ENTITY ns_flows "http://ns.adobe.com/Flows/1.0/">
]>
<svg version="1.1" xmlns="http://www.w3.org/2000/svg" xmlns:xlink="http://www.w3.org/1999/xlink" xmlns:a="http://ns.adobe.com/AdobeSVGViewerExtensions/3.0/" x="0px" y="0px" width="13px" height="13px" viewBox="-0.024 -0.028 13 13" enable-background="new -0.024 -0.028 13 13" xml:space="preserve">
<defs>
</defs>
<path fill="#E66E6E" d="M6.504,12.996C2.9,12.998-0.002,10.093,0,6.49C0.003,2.902,2.903,0.005,6.496,0  C10.095-0.005,13.005,2.908,13,6.509C12.996,10.097,10.092,12.996,6.504,12.996z M7.585,5.412c0-0.725,0.004-1.41-0.002-2.095  C7.58,2.93,7.363,2.713,6.98,2.704C6.674,2.698,6.367,2.7,6.06,2.703C5.627,2.708,5.418,2.92,5.416,3.358  C5.414,3.953,5.415,5.315,5.415,5.412c-0.72,0-1.396-0.004-2.073,0.001C2.92,5.416,2.712,5.628,2.707,6.048  c-0.003,0.252,0,0.505-0.001,0.758c0,0.607,0.168,0.777,0.766,0.777c0.638,0,1.276,0,1.943,0c0,0.115-0.003,1.481,0.001,2.078  c0.004,0.404,0.215,0.621,0.615,0.629c0.315,0.008,0.631,0.009,0.948,0c0.384-0.01,0.599-0.229,0.604-0.613  c0.006-0.451,0.002-1.834,0.002-2.094c0.692,0,1.351,0.002,2.008,0c0.504,0,0.697-0.197,0.701-0.708c0-0.244,0-0.487,0-0.731  c-0.002-0.547-0.186-0.732-0.732-0.732C8.914,5.411,8.267,5.412,7.585,5.412z"/>
</svg>